HIERARCHY
ROOT Hips
{
	OFFSET 0.00000 0.00000 0.00000
	CHANNELS 6 Xposition Yposition Zposition Zrotation Yrotation Xrotation 
	JOINT LHipJoint
	{
		OFFSET 0 0 0
		CHANNELS 3 Zrotation Yrotation Xrotation
		JOINT LeftUpLeg
		{
			OFFSET 1.65674 -1.80282 0.62477
			CHANNELS 3 Zrotation Yrotation Xrotation
			JOINT LeftLeg
			{
				OFFSET 2.59720 -7.13576 0.00000
				CHANNELS 3 Zrotation Yrotation Xrotation
				JOINT LeftFoot
				{
					OFFSET 2.49236 -6.84770 0.00000
					CHANNELS 3 Zrotation Yrotation Xrotation
					JOINT LeftToeBase
					{
						OFFSET 0.19704 -0.54136 2.14581
						CHANNELS 3 Zrotation Yrotation Xrotation
						End Site
						{
							OFFSET 0.00000 -0.00000 1.11249
						}
					}
				}
			}
		}
	}
	JOINT RHipJoint
	{
		OFFSET 0 0 0
		CHANNELS 3 Zrotation Yrotation Xrotation
		JOINT RightUpLeg
		{
			OFFSET -1.61070 -1.80282 0.62476
			CHANNELS 3 Zrotation Yrotation Xrotation
			JOINT RightLeg
			{
				OFFSET -2.59502 -7.12977 0.00000
				CHANNELS 3 Zrotation Yrotation Xrotation
				JOINT RightFoot
				{
					OFFSET -2.46780 -6.78024 0.00000
					CHANNELS 3 Zrotation Yrotation Xrotation
					JOINT RightToeBase
					{
						OFFSET -0.23024 -0.63258 2.13368
						CHANNELS 3 Zrotation Yrotation Xrotation
						End Site
						{
							OFFSET -0.00000 -0.00000 1.11569
						}
					}
				}
			}
		}
	}
	JOINT LowerBack
	{
		OFFSET 0 0 0
		CHANNELS 3 Zrotation Yrotation Xrotation
		JOINT Spine
		{
			OFFSET 0.01961 2.05450 -0.14112
			CHANNELS 3 Zrotation Yrotation Xrotation
			JOINT Spine1
			{
				OFFSET 0.01021 2.06436 -0.05921
				CHANNELS 3 Zrotation Yrotation Xrotation
				JOINT Neck
				{
					OFFSET 0 0 0
					CHANNELS 3 Zrotation Yrotation Xrotation
					JOINT Neck1
					{
						OFFSET 0.00713 1.56711 0.14968
						CHANNELS 3 Zrotation Yrotation Xrotation
						JOINT Head
						{
							OFFSET 0.03429 1.56041 -0.10006
							CHANNELS 3 Zrotation Yrotation Xrotation
							End Site
							{
								OFFSET 0.01305 1.62560 -0.05265
							}
						}
					}
				}
				JOINT LeftShoulder
				{
					OFFSET 0 0 0
					CHANNELS 3 Zrotation Yrotation Xrotation
					JOINT LeftArm
					{
						OFFSET 3.54205 0.90436 -0.17364
						CHANNELS 3 Zrotation Yrotation Xrotation
						JOINT LeftForeArm
						{
							OFFSET 4.86513 -0.00000 -0.00000
							CHANNELS 3 Zrotation Yrotation Xrotation
							JOINT LeftHand
							{
								OFFSET 3.35554 -0.00000 0.00000
								CHANNELS 3 Zrotation Yrotation Xrotation
								JOINT LeftFingerBase
								{
									OFFSET 0 0 0
									CHANNELS 3 Zrotation Yrotation Xrotation
									JOINT LeftHandIndex1
									{
										OFFSET 0.66117 -0.00000 0.00000
										CHANNELS 3 Zrotation Yrotation Xrotation
										End Site
										{
											OFFSET 0.53306 -0.00000 0.00000
										}
									}
								}
								JOINT LThumb
								{
									OFFSET 0 0 0
									CHANNELS 3 Zrotation Yrotation Xrotation
									End Site
									{
										OFFSET 0.54120 -0.00000 0.54120
									}
								}
							}
						}
					}
				}
				JOINT RightShoulder
				{
					OFFSET 0 0 0
					CHANNELS 3 Zrotation Yrotation Xrotation
					JOINT RightArm
					{
						OFFSET -3.49802 0.75994 -0.32616
						CHANNELS 3 Zrotation Yrotation Xrotation
						JOINT RightForeArm
						{
							OFFSET -5.02649 -0.00000 0.00000
							CHANNELS 3 Zrotation Yrotation Xrotation
							JOINT RightHand
							{
								OFFSET -3.36431 -0.00000 0.00000
								CHANNELS 3 Zrotation Yrotation Xrotation
								JOINT RightFingerBase
								{
									OFFSET 0 0 0
									CHANNELS 3 Zrotation Yrotation Xrotation
									JOINT RightHandIndex1
									{
										OFFSET -0.73041 -0.00000 0.00000
										CHANNELS 3 Zrotation Yrotation Xrotation
										End Site
										{
											OFFSET -0.58887 -0.00000 0.00000
										}
									}
								}
								JOINT RThumb
								{
									OFFSET 0 0 0
									CHANNELS 3 Zrotation Yrotation Xrotation
									End Site
									{
										OFFSET -0.59786 -0.00000 0.59786
									}
								}
							}
						}
					}
				}
			}
		}
	}
}
MOTION
Frames: 6
Frame Time: .0083333
9.9324 17.6232 -3.5891 0 0 0 0 0 0 -21 0 0 0 0 0 0 0 0 0 0 0 0 0 0 21 0 0 0 0 0 0 0 0 0 0 0 0 0 0 0 0 0 0 0 0 0 0 -16 0 0 21 0 0 11 0 0 0 -8 0 0 0 0 0 0 0 0 0 0 0 0 0 0 0 0 0 0 0 0 8 0 0 0 0 0 0 0 0 0 0 0 0 0 0 0 0 0
9.9324 17.6232 -3.5891 4.5012 -20.7942 -9.3999 0.0000 0.0000 0.0000 -21.6091 -3.9603 -5.8644 0.6179 5.0307 13.9961 -0.8051 15.7936 -3.6233 0.1898 -2.8056 -7.7381 0.0000 0.0000 0.0000 16.8915 -5.7067 7.2738 -1.0749 -6.5903 18.5072 -0.9487 -12.5371 -26.8328 -0.0087 -0.6016 1.6532 0.7643 0.4051 1.0083 0.5546 0.5339 1.6880 0.1396 0.2712 1.1644 -1.7824 2.9136 -12.6377 0.7149 4.1115 4.7087 0.8501 2.0283 3.7451 -0.0000 -0.0000 0.0000 -97.8979 -33.3605 53.3336 36.7217 -46.0031 -16.0395 -0.0000 0.0000 -45.5834 49.4056 19.0786 20.8786 -7.1250 0.0000 -0.0000 24.0049 56.3109 6.9388 -0.0000 -0.0000 0.0000 96.3534 28.9423 97.0396 -26.4315 37.6317 -9.1499 0.0000 -0.0000 -40.6166 -49.0399 14.5825 -16.1743 7.1250 -0.0000 -0.0000 -13.9351 -8.8364 -11.9992
9.9300 17.6228 -3.5933 4.1150 -20.7376 -9.2726 0.0000 0.0000 0.0000 -21.1789 -4.1641 -6.3504 0.7013 5.3529 14.9179 -0.7990 15.6461 -4.4697 0.1117 -2.1548 -5.9336 0.0000 0.0000 0.0000 17.3107 -5.8408 7.6087 -0.9961 -6.3516 17.8080 -0.8614 -12.8784 -26.4937 -0.0032 -0.3628 0.9970 1.2484 0.4511 0.9478 0.6373 0.5948 1.6555 -0.0465 0.3067 1.1695 -2.1593 2.7166 -12.6353 0.9700 3.8902 4.7939 0.9882 1.9231 3.7663 -0.0000 0.0000 0.0000 -97.9276 -33.9403 53.9169 37.1374 -46.2794 -16.3393 -0.0000 0.0000 -45.7036 49.3772 19.1652 20.9427 -7.1250 0.0000 -0.0000 24.0023 56.4138 6.9990 -0.0000 0.0000 0.0000 96.3912 29.3610 96.3737 -26.4342 37.6343 -9.1515 0.0000 -0.0000 -39.9708 -49.0279 14.5935 -16.1791 7.1250 -0.0000 -0.0000 -13.9252 -8.8253 -11.9933
9.9263 17.6235 -3.6102 3.0117 -20.8425 -8.6824 0.0000 0.0000 0.0000 -19.9209 -4.3695 -7.0968 0.7894 5.6717 15.8349 -0.7875 15.4885 -5.4361 0.0478 -1.4116 -3.8822 0.0000 0.0000 0.0000 18.6036 -5.6982 7.6435 -0.9344 -6.1576 17.2423 -0.8037 -13.2067 -26.3702 -0.0093 -0.6238 1.7142 2.3519 0.4119 0.8053 0.8481 0.5383 1.5940 -0.4476 0.2897 1.1953 -1.9945 2.7582 -12.7998 1.0840 3.9130 4.9450 1.0054 1.9423 3.8533 0.0000 0.0000 0.0000 -97.7074 -34.6950 54.1647 37.4163 -46.4624 -16.5412 -0.0000 0.0000 -45.4996 49.5458 19.1626 21.0544 -7.1250 0.0000 -0.0000 24.2249 56.4604 7.0974 0.0000 0.0000 0.0000 96.8275 29.9123 96.0542 -26.4036 37.6044 -9.1328 0.0000 -0.0000 -39.3301 -49.2693 14.8624 -16.5879 7.1250 -0.0000 -0.0000 -14.0069 -8.3712 -12.1986
9.9156 17.6267 -3.6320 2.3230 -21.0242 -8.1612 0.0000 0.0000 0.0000 -19.0417 -4.3672 -7.8225 0.8478 5.8727 16.4154 -0.7626 15.2493 -5.3692 0.0801 -1.8255 -5.0237 0.0000 0.0000 0.0000 19.5335 -5.3432 7.5827 -0.8856 -5.9987 16.7806 -0.7570 -13.5354 -26.3366 -0.0252 -1.0253 2.8184 2.8421 0.4151 0.6608 1.0524 0.5383 1.4526 -0.5122 0.2921 1.1346 -1.7114 2.9794 -12.6984 1.0441 4.1634 5.0035 0.9579 2.0699 3.8558 -0.0000 0.0000 0.0000 -97.3682 -35.4177 54.3194 37.8250 -46.7272 -16.8380 -0.0000 0.0000 -45.5762 50.0598 18.7639 21.0149 -7.1250 0.0000 -0.0000 24.7378 56.0990 7.0395 -0.0000 0.0000 0.0000 97.1415 30.4495 95.8604 -26.4606 37.6599 -9.1676 0.0000 -0.0000 -38.8000 -48.7881 14.3487 -15.7997 7.1250 -0.0000 -0.0000 -13.8375 -9.2432 -11.7938
9.9068 17.6271 -3.6396 2.0070 -21.1604 -8.0273 0.0000 0.0000 0.0000 -18.6267 -4.4487 -8.0158 0.8789 5.9768 16.7171 -0.7502 15.1373 -5.0051 0.1777 -2.7154 -7.4875 0.0000 0.0000 0.0000 19.9803 -5.1224 7.7282 -0.8619 -5.9202 16.5531 -0.7342 -13.7266 -26.3543 -0.0225 -0.9677 2.6599 3.0876 0.4579 0.6581 1.1699 0.5981 1.2996 -0.5299 0.3206 0.9825 -1.6812 3.0875 -11.9987 1.0118 4.2942 4.6488 0.9263 2.1365 3.5908 -0.0000 -0.0000 0.0000 -97.0942 -35.9767 54.4826 38.2930 -47.0254 -17.1797 -0.0000 0.0000 -45.6904 50.4711 18.7938 21.3264 -7.1250 0.0000 -0.0000 25.2985 56.2610 7.3156 -0.0000 -0.0000 0.0000 97.2392 30.8917 95.7202 -26.5567 37.7531 -9.2264 0.0000 -0.0000 -38.4580 -48.3282 13.9705 -15.1756 7.1250 -0.0000 -0.0000 -13.6450 -9.9128 -11.4301
